# xmcd CD database file
#
# Track frame offsets:
#	183
#	30558
#	44908
#	70858
#	85608
#	114558
#	134158
#	161795
#	180783
#	215045
#	233958
#
# Disc length: 3747 seconds
#
# Revision: 1
# Processed by: cddbd v1.5.2PL0 Copyright (c) Steve Scherf et al.
# Submitted via: CDex 1.51
#
DISCID=9d0ea10b
DTITLE=Antonio Grande - Nicola De Giorgi - Leggerezza
DYEAR=1995
DGENRE=New Age
TTITLE0=Respiro consapevole
TTITLE1=Sorgente nel bosco
TTITLE2=Calma ritmata
TTITLE3=Mare
TTITLE4=Tenerezza
TTITLE5=Pioggia leggera
TTITLE6=Onda interiore
TTITLE7=Lo stagno di sera
TTITLE8=Risveglio cosciente
TTITLE9=Ruscello nella foresta
TTITLE10=Leggerezza
EXTD=YEAR: 1995
EXTT0=
EXTT1=
EXTT2=
EXTT3=
EXTT4=
EXTT5=
EXTT6=
EXTT7=
EXTT8=
EXTT9=
EXTT10=
PLAYORDER=
